<?xml version="1.0" encoding="UTF-8"?>
<svg width="256px" height="256px" viewBox="0 0 256 256" version="1.1"
    xmlns="http://www.w3.org/2000/svg"
    xmlns:xlink="http://www.w3.org/1999/xlink">
    <g id="Audit-Full" stroke="none" stroke-width="1" fill="none" fill-rule="evenodd">
        <path d="M26,36.5 C26,24.0737 35.4256842,14 47.0526316,14 L143.894737,14 L186,59 L186,207.5 C186,219.9263 176.574316,230 164.947368,230 L47.0526316,230 C35.4256842,230 26,219.9263 26,207.5 L26,36.5 Z" id="Path" fill="#0F277F" fill-rule="nonzero"></path>
        <path d="M186,59 L157.3,59 C150.50671,59 145,52.95605 145,45.5 L145,14 L186,59 Z" id="Path" fill="#00D7E9" fill-rule="nonzero"></path>
        <path d="M135.252559,156.942453 C135.531138,152.430689 138.967812,149.0033 143.263899,148.295103 C148.026014,147.510053 154.2274,146.319837 159.004757,144.816478 C164.867568,142.971323 172.874044,139.30461 177.734748,136.977099 C180.454705,135.6743 183.593991,135.6743 186.313949,136.977099 C191.174653,139.30461 199.181128,142.971323 205.043939,144.816478 C209.821296,146.319837 216.022683,147.510053 220.784797,148.295103 C225.080884,149.0033 228.517559,152.430689 228.796138,156.942453 C229.988612,176.242081 228.695927,226.784954 184.727442,241.873153 C182.994349,242.468092 181.054672,242.468092 179.321255,241.873153 C135.352769,226.784954 134.059922,176.242081 135.252559,156.942453 Z" id="Path" fill="#FFD700" fill-rule="nonzero"></path>
        <path d="M176.942408,226.262557 C174.890522,225.296497 172.986195,224.209426 171.219374,223.018874 L188.315509,150.346282 C190.081033,151.197062 192.126757,152.149639 194.170536,153.029745 L176.942408,226.262557 Z M182.146228,149 L165.764541,218.634525 C161.564773,214.634443 158.389489,209.952794 156,204.999123 L167.824535,154.73535 C171.35461,153.454797 175.587132,151.493015 178.705014,149.97415 C179.801493,149.440221 180.966402,149.115617 182.146228,149 Z" id="Shape" fill="#FFFFFF"></path>
        <path d="M148.086804,166.268408 C148.270685,161.746869 151.701523,158.303637 155.98788,157.5078 C159.055818,156.938142 162.561894,156.175001 165.382711,155.255458 C169.134287,154.032883 174.098121,151.743125 177.631114,150.022352 C180.42923,148.659216 183.674888,148.659216 186.473003,150.022352 C190.005997,151.743125 194.96983,154.032883 198.721406,155.255458 C201.542223,156.175001 205.048299,156.938142 208.116238,157.5078 C212.402595,158.303637 215.833432,161.746869 216.017314,166.268408 C216.648414,181.78402 214.565719,216.573979 184.819041,227.752433 C183.043788,228.419507 181.06033,228.419507 179.285077,227.752433 C149.538399,216.573979 147.455703,181.78402 148.086804,166.268408 Z" id="Path" stroke="#0F277F" stroke-width="6"></path>
    </g>
</svg>