<svg id="Layer_1" data-name="Layer 1" xmlns="http://www.w3.org/2000/svg" viewBox="0 0 900 925.18"><defs><style>.cls-1{fill:#efd35e;}.cls-2{fill:#e8e3dd;}.cls-3{fill:#c9c8c7;}.cls-4{fill:#9e9e9e;}.cls-5{fill:#2d2b29;}.cls-6{fill:#3f3e3c;}.cls-7{fill:none;}.cls-8{fill:#3d3b3a;}.cls-9{fill:#383331;}.cls-10{fill:#595453;}.cls-11{fill:#2b2727;}.cls-12{fill:#e2dbd9;}.cls-13{fill:#edeae6;}.cls-14{fill:#333130;}.cls-15{fill:#3a3837;}.cls-16{fill:#f2f0ed;}.cls-17{fill:#dbd7d2;}</style></defs><path class="cls-1" d="M900,475.18a447.89,447.89,0,0,1-75.43,249.47C743.9,845.55,606.25,925.18,450,925.18c-133.92,0-254.18-58.5-336.61-151.34A448.33,448.33,0,0,1,0,475.18C0,292.11,109.32,134.57,266.24,64.29a444.26,444.26,0,0,1,56.45-20.84q5.49-1.64,11.05-3.1h0A449.24,449.24,0,0,1,693.65,96.79q16.47,10.62,31.93,22.62C831.7,201.72,900,330.48,900,475.18Z"/><path class="cls-2" d="M748.07,560.13c-4.38,15.61-23.24,23.1-39.34,21.13A72.6,72.6,0,0,1,689.82,576c-9-3.55-17.53-8.28-26.25-12.36-72.38-34-156.49-24.43-236.16-31-8.62-.69-17.24-1.62-25.75-2.71h-.05c-57.76-7.28-114-22.7-169.54-41.31-36.84-12.31-73.28-26-109.47-39.69C115,446.09,111.36,468,104,464.45c-7.12-39.14-6.53-55.39-5.3-70.56.09-1.26.26-3.24.54-5.66,2.47-21.36,11.86-47.05,53-108.68,8.13-12.16,16.65-23.74,25.56-34.62a68,68,0,0,1,7.14.94c19.06,3.4,36.49,11.57,52.94,21.81a2,2,0,0,1,.39.25c5.81,3.64,11.52,7.53,17.14,11.57,8.86,6.35,17.48,13.05,26,19.6,5,3.84,10.09,7.73,15.31,11.52.49.4,1,.74,1.58,1.13,24.72,17.88,51.45,33.44,81.49,35.95C418,351,454.15,332.78,489.21,317.32s74.9-28.61,110.84-15.46c40.13,14.62,62.05,56.77,80.27,95.43q18.31,38.77,36.58,77.55Q729,500.48,741.08,526.1C746.15,536.84,751.32,548.76,748.07,560.13Z"/><path class="cls-3" d="M824.57,724.65C743.9,845.55,606.25,925.18,450,925.18c-133.92,0-254.18-58.5-336.61-151.34l18.67-87.94,4.82-22.85s.15-.69.4-1.92c0-.11.05-.21.07-.33,1.45-7.39,6.14-30.19,7.07-29.47,8.37-17.77,8.66-39.68,3.64-59-.2-.83-.44-1.67-.69-2.51s-.54-1.87-.79-2.76V567c-8-26.24-23.09-50.07-33.29-75.63-1.08-2.66-2.06-5.32-3-8a10.85,10.85,0,0,1-.39-1.18c-.89-2.46-1.73-5-2.47-7.49a6,6,0,0,1-.24-.93c-.84-2.56-1.53-5.12-2.17-7.68-.15-.49-.29-.94-.39-1.43a.3.3,0,0,1,0-.2c-.64-2.46-1.18-4.92-1.73-7.43a1.8,1.8,0,0,1-.09-.45,94.53,94.53,0,0,1,21.52-41.56c15.26-16.94,37-27.77,59.63-30.43a187.71,187.71,0,0,1,27.18,3c.34.05.69.14,1,.19h0c1.32.3,2.64.54,4,.89,0,0,0,0,0,0A308.27,308.27,0,0,1,246.49,397h0c13.2,4.29,26.09,9.36,38.85,14.87,7.14,3.06,14.18,6.31,21.17,9.6v.05h0c24.17,11.38,47.95,23.93,71.92,35.55C433,483.46,492.7,506,552.88,498.48c36.49-4.53,70.91-19.94,107.4-24.77a168.6,168.6,0,0,1,17.18-1.43,196.44,196.44,0,0,1,39.44,2.56,217.56,217.56,0,0,1,53.86,16.62c1.26.57,2.51,1.16,3.76,1.75l35,161.91L815,680.38Z"/><path class="cls-4" d="M469,707.81c-5.91,18.56-19.84,33.29-33.39,47.32-22.7,23.49-45.69,47.17-73.07,64.9s-60,29.35-92.53,26.05A110,110,0,0,1,199.57,810c-29.45-33.18-36.25-81.15-62.15-117.19-1.72-2.37-3.49-4.68-5.36-6.94l4.82-22.85s.15-.69.4-1.92c1.37-7,6.2-30.53,7.14-29.8,8.37-17.77,8.66-39.68,3.64-59-.2-.83-.44-1.67-.69-2.51-.49-1.13-.94-2.31-1.33-3.45.2.2.34.4.54.64v.05c6,7.59,9.7,16.75,14.48,25.17a114.8,114.8,0,0,0,16.25,21.81c25,26.39,61.85,41.56,98.43,46.39,45.7,6,92-1.53,137.68-7.64,13.45-1.77,27.92-3.25,39.74,3.35C470.2,665.71,474.93,689.24,469,707.81Z"/><path class="cls-5" d="M815,680.38c-16.89,3.84-36.63-1.67-52.34-10.44a153.92,153.92,0,0,1-67.22-76.87,151.4,151.4,0,0,1-5.61-17c-7.78-27.92-9-57.57-11-86.57q-.58-8.57-1.38-17.19c-2.71-29.49-8-59-22.75-84.45-17.63-30.38-52.34-53.52-86.91-47.22-30.09,5.47-52,30.48-74.11,51.7s-51.9,40.92-81.3,32.41c-40.87-11.92-56.92-72-99.32-75.49-20.09-1.68-40.43,10.83-59.68,6.94A28.31,28.31,0,0,1,249.1,355c-27.13-9.21-30.67-47.23-52.49-65.74-12.16-10.29-28.56-12.8-44.37-9.75,8.13-12.16,16.65-23.74,25.56-34.62q3.33-4.06,6.65-8a351.2,351.2,0,0,1,48.65-47.52,231.15,231.15,0,0,1,24.72-17.14c.05-.3.05-.59.1-.89,5.27-44.86,6.3-92.77,11-138,.34-3.5.74-6.9,1.13-10.34.69-5.76,1.92-12.26,5.17-16.84a27.22,27.22,0,0,1,3.65-3.6A11.32,11.32,0,0,1,284.71.05h.05a6.83,6.83,0,0,1,2.26.1,12,12,0,0,1,3.45,1.28c5.36,3,10,9.65,15.66,11.23q25.47,24.59,49.24,50.91c4,4.39,7.88,8.82,11.77,13.3q17.43,20,33.78,41c3,.1,6,.24,9,.39s6,.3,8.91.49l8.91.6c3,.19,5.91.44,8.87.68q16.24,1.33,32.25,3.35c5.37.64,10.74,1.33,16.05,2.12,4.14.54,8.23,1.18,12.36,1.82,2.17.3,4.34.64,6.5,1,1,.14,2,.29,2.91.49,3.4.54,6.84,1.13,10.24,1.72,5.37.94,10.69,1.92,16,3,3.84.73,7.73,1.47,11.57,2.26q10.18,2.07,20.38,4.33c27-26.29,53.53-55.59,80.56-81.88,10.84-10.49,23.79-21.72,38.46-21a14.09,14.09,0,0,1,2.51.2c.84.09,1.63.29,2.42.44s1.42.39,2.11.64a16.24,16.24,0,0,1,2.17.84c.74.29,1.43.64,2.12,1a1,1,0,0,1,.39.2,23.25,23.25,0,0,1,3.35,2.07.83.83,0,0,1,.25.19,18.68,18.68,0,0,1,1.87,1.48A15.29,15.29,0,0,1,703,46a13.3,13.3,0,0,1,1.18,1.19,14.56,14.56,0,0,1,1.43,1.52A17,17,0,0,1,707,50.52a.71.71,0,0,1,.24.3A23.38,23.38,0,0,1,709,53.23c.59.89,1.13,1.78,1.67,2.71,5.17,9.21,7.34,19.75,9.21,30.14,9.6,52.34,16.54,96,6.65,185.2l48,221.93,35,161.91Z"/><path class="cls-6" d="M340.69,134.88c6.7-50-14.87-102.67-53.67-134.73a12,12,0,0,1,3.45,1.28c5.36,3,10,9.65,15.66,11.23A998.73,998.73,0,0,1,400.38,117.2C380.48,123.06,360.74,128.87,340.69,134.88Z"/><path class="cls-6" d="M809.53,655.12C783.58,578,765.26,392,683.47,257.09c-19.6-32.4-39.1-50.57-49.93-60.27-5.52-4.92-8.82-7.63-8.72-8.91.49-8.17,15.66-6.94,20.78-5.71,8,1.92,15.86,5.66,24,4.53,9.26-1.33,16.74-8.91,20.54-17.63a.91.91,0,0,0,.09-.35c3.7-8.66,4.39-18.31,4.68-27.77a386.74,386.74,0,0,0-11-103.7,14.09,14.09,0,0,1,2.51.2c.84.09,1.63.29,2.42.44s1.42.39,2.11.64a16.24,16.24,0,0,1,2.17.84c.74.29,1.43.64,2.12,1a1,1,0,0,1,.39.2,23.25,23.25,0,0,1,3.35,2.07.83.83,0,0,1,.25.19,18.68,18.68,0,0,1,1.87,1.48A15.29,15.29,0,0,1,703,46a13.3,13.3,0,0,1,1.18,1.19,14.56,14.56,0,0,1,1.43,1.52A17,17,0,0,1,707,50.52a.71.71,0,0,1,.24.3A23.38,23.38,0,0,1,709,53.23c.59.89,1.13,1.78,1.67,2.71,5.17,9.21,7.34,19.75,9.21,30.14,9.6,52.34,16.54,96,6.65,185.2l48,221.93Z"/><path class="cls-7" d="M824.57,724.65C743.9,845.55,606.25,925.18,450,925.18c-133.92,0-254.18-58.5-336.61-151.34l18.67-87.94,4.82-22.85s.15-.69.4-1.92c0-.11.05-.21.07-.33,1.5-6.89,6-27.33,7.07-29.47,8.37-17.77,8.66-39.68,3.64-59-.2-.83-.44-1.67-.69-2.51s-.54-1.87-.79-2.76V567c-8-26.24-23.09-50.07-33.29-75.63-1.08-2.66-2.06-5.32-3-8a10.85,10.85,0,0,1-.39-1.18c-.89-2.46-1.73-5-2.47-7.49a6,6,0,0,1-.24-.93c-.84-2.56-1.53-5.12-2.17-7.68-.15-.49-.29-.94-.39-1.43a.3.3,0,0,1,0-.2c-.64-2.46-1.18-4.92-1.73-7.43a1.8,1.8,0,0,1-.09-.45c-.3-1.23-.55-2.51-.74-3.74a.18.18,0,0,1,0-.15c0-.18-.07-.37-.11-.55-.84-4.2-1.49-8.45-2.06-12.69-.2-1.68-.44-3.4-.59-5.12-.39-3.7-.69-7.39-.84-11.13v-.15a169.48,169.48,0,0,1,4.09-44.56.38.38,0,0,1,.05-.2,163.86,163.86,0,0,1,6.65-21.91c8-20.88,21.17-47,43.08-76.87,7.59-10.29,14.63-20.73,22.26-30.48l1.63-2.07c.55-.69,1.1-1.38,1.67-2.07q3.33-4.06,6.65-8a351.2,351.2,0,0,1,48.65-47.52,231.15,231.15,0,0,1,24.72-17.14c.05-.3.05-.59.1-.89,4.08-34.77,5.62-71.37,8.32-107.12.77-10.38,1.65-20.68,2.71-30.85.34-3.5.74-6.9,1.13-10.34.69-5.76,1.92-12.26,5.17-16.84a12.77,12.77,0,0,1,3.65-3.6,9.8,9.8,0,0,1,2.65-1.38A12.27,12.27,0,0,1,287.7.72a14.45,14.45,0,0,1,2.77.71c5,1.62,9.65,5.47,13.54,9.16.69.69,1.43,1.38,2.12,2.07q14.07,13.58,27.61,27.69,8,8.25,15.67,16.67,3,3.27,6,6.55,2.81,3.12,5.6,6.26l.32.36c1.83,2.08,3.66,4.16,5.48,6.26l.37.42q3.27,3.75,6.49,7.54c1.5,1.75,3,3.52,4.48,5.29.07.07.13.15.2.23,1.53,1.82,3.05,3.66,4.57,5.5.49.57.95,1.14,1.42,1.71q2.56,3.12,5.12,6.27,2.7,3.34,5.38,6.71l.27.33c1.71,2.16,3.42,4.33,5.11,6.5a2.43,2.43,0,0,1,.2.25l.54.69c3,.1,6,.24,9,.39s6,.3,8.91.49l8.91.6c3,.19,5.91.44,8.87.68q16.24,1.33,32.25,3.35c5.37.64,10.74,1.33,16.05,2.12,4.14.54,8.23,1.18,12.36,1.82,2.17.3,4.34.64,6.5,1,1,.14,2,.29,2.91.49,3.4.54,6.84,1.13,10.24,1.72,5.37.94,10.69,1.92,16,3,3.84.73,7.73,1.47,11.57,2.26q10.18,2.07,20.38,4.33c24.41-23.74,48.38-49.93,72.7-74.13q3.91-3.92,7.86-7.75c10.84-10.49,23.79-21.72,38.46-21a14.09,14.09,0,0,1,2.51.2c.84.09,1.63.29,2.42.44s1.42.39,2.11.64a16.24,16.24,0,0,1,2.17.84c.74.29,1.43.64,2.12,1a1,1,0,0,1,.39.2,23.25,23.25,0,0,1,3.35,2.07.83.83,0,0,1,.25.19,18.68,18.68,0,0,1,1.87,1.48A15.29,15.29,0,0,1,703,46a13.3,13.3,0,0,1,1.18,1.19,14.56,14.56,0,0,1,1.43,1.52A17,17,0,0,1,707,50.52a.71.71,0,0,1,.24.3A23.38,23.38,0,0,1,709,53.23c.59.89,1.13,1.78,1.67,2.71,5.17,9.21,7.34,19.75,9.21,30.14,2.08,11.33,4,22.26,5.72,33.33,6.1,40.06,8.68,82,.93,151.87l48,221.93,35,161.91L815,680.38Z"/><path class="cls-8" d="M189.59,425.29a5,5,0,0,1-4.86-3.86c-4-16.93,19.6-34.6,49.44-57,37.59-28.18,80.2-60.12,60.49-88.57-5.79-8.36-15.87-13-27.65-12.72-15.56.37-30.59,9.19-39.22,23a5,5,0,0,1-8.49-5.3c10.4-16.65,28.59-27.26,47.48-27.71,15.19-.36,28.36,5.84,36.1,17,11.3,16.32,8.6,34.81-8,54.95-13.72,16.62-34.54,32.23-54.68,47.32-22.58,16.93-48.17,36.12-45.69,46.69a5,5,0,0,1-3.73,6A5.07,5.07,0,0,1,189.59,425.29Z"/><path class="cls-8" d="M337.3,548.17q-7,0-14.06-.61c-29.32-2.52-58.18-15.86-88.13-40.77-16.85,12.57-41,14-59.16,3.13a5,5,0,0,1,5.15-8.57c15.47,9.3,37.28,7.25,50.74-4.78a5,5,0,0,1,6.58-.07c29.45,25.23,57.47,38.68,85.68,41.1a158.74,158.74,0,0,0,94-21.58,5,5,0,1,1,5.11,8.59A169,169,0,0,1,337.3,548.17Z"/><path class="cls-8" d="M235,505.34a5,5,0,0,1-4.76-3.46,97.31,97.31,0,0,1-2-53,5,5,0,0,1,9.72,2.37,88.33,88.33,0,0,0,1.78,47.58,5,5,0,0,1-3.22,6.3A4.87,4.87,0,0,1,235,505.34Z"/><path class="cls-9" d="M301.3,436c-7.68,11.28-16.05,22.16-26.34,31.12-6.8,6-15.07,11.72-24,15.17-8.13,3.1-16.69,4.33-25.16,2.07-12.12-3.3-22.41-13.55-29.4-25.71-5.81-10-9.36-21.27-9.85-31v-.1C185,394.73,219.46,383.3,247,384.63a85.12,85.12,0,0,1,47,17.29c1.08.78,2.11,1.62,3.15,2.51.05.05.1.1.15.1C308.15,413.88,309.38,424.12,301.3,436Z"/><path class="cls-10" d="M297.27,404.53c-22.51-3.94-44.86-10.49-67-6.06a70.59,70.59,0,0,0-43.68,29.2v-.1C185,394.73,219.46,383.3,247,384.63a85.12,85.12,0,0,1,47,17.29c1.08.78,2.11,1.62,3.15,2.51C297.17,404.48,297.22,404.53,297.27,404.53Z"/><path class="cls-11" d="M301.3,436c-7.68,11.28-16.05,22.16-26.34,31.12-6.8,6-15.07,11.72-24,15.17-8.13,3.1-16.69,4.33-25.16,2.07-12.12-3.3-22.41-13.55-29.4-25.71a54.12,54.12,0,0,0,31.32,3.15c18.91-3.74,35.16-16.64,46.19-32.45,6.4-9.16,11.37-19.45,19.55-27.08a1.57,1.57,0,0,1,.49-.39c1.08.78,2.11,1.62,3.15,2.51C308.15,413.78,309.43,424.08,301.3,436Z"/><path class="cls-8" d="M269.87,581.29a84,84,0,0,1-19.58-2.3,85.25,85.25,0,0,1-51.22-36.33,5,5,0,1,1,8.4-5.42,74.51,74.51,0,0,0,100,24.06,5,5,0,0,1,5,8.66A85.34,85.34,0,0,1,269.87,581.29Z"/><path class="cls-12" d="M670.37,229.12A8,8,0,0,0,684.28,225c3.31-20.81,6-41.71,6.07-62.76A205.46,205.46,0,0,0,688,130.41c-2.33-15-21.71-19.5-30.23-7-2.67,3.92-5,7.11-6.49,8.93a111.25,111.25,0,0,1-19.88,19.39c-6.33,4.79-18.79,8.19-23.72,13.76-13.33,15.07,19.07,26.19,28.85,33.25A212,212,0,0,1,670.37,229.12Z"/><path class="cls-8" d="M726.78,277.06a81.36,81.36,0,0,0-29.85-41.75l.64-.89a82.46,82.46,0,0,1,30.25,42.32Z"/><path class="cls-8" d="M325.41,142.83l-.52-1A200.7,200.7,0,0,1,405.1,118l.08,1.09A199.26,199.26,0,0,0,325.41,142.83Z"/><path class="cls-13" d="M523.92,331.5c-11.38,19.11-31.62,32.06-53.53,36.29a80.65,80.65,0,0,1-29.55.25c-7.19-1.33-14.28-3.7-20.09-8S410,348.14,412,341.15c6.74-23.14,28.61-41.07,52.64-43.13a51.26,51.26,0,0,1,10.29.09C495.45,300.08,514.81,312.94,523.92,331.5Z"/><path class="cls-14" d="M523.92,331.5c-11.38,19.11-31.62,32.06-53.53,36.29A38.24,38.24,0,0,1,475,298.11C495.45,300.08,514.81,312.94,523.92,331.5Z"/><path class="cls-15" d="M454.6,371.77a79,79,0,0,1-14.22-1.27c-8.73-1.6-15.65-4.38-21.15-8.51-6.49-4.86-12-13.41-9.61-21.55,7.08-24.28,29.63-42.76,54.83-44.94s50.59,12.17,61.72,34.88l.6,1.22-.69,1.16C511.81,356.69,483.26,371.77,454.6,371.77Zm14.73-71.48c-1.48,0-3,.06-4.45.19-22.82,2-44,19.37-50.46,41.36-1.7,5.84,2.7,12.32,7.81,16.15,4.87,3.65,11.1,6.14,19,7.59,30.58,5.59,63.88-8.77,79.79-34.21C511.34,312.8,490.3,300.29,469.33,300.29Z"/><path class="cls-16" d="M480.43,313.09a7,7,0,1,1,7,7A7,7,0,0,1,480.43,313.09Z"/><path class="cls-13" d="M286.63,319.83a36.59,36.59,0,0,1-6.16,2.9,50.14,50.14,0,0,1-25.56,2.07c-.64-.1-1.28-.24-1.92-.39A54.07,54.07,0,0,1,223.15,306a20.5,20.5,0,0,1,.74-26.83c10.64-11.67,26.05-19.65,42.05-19.36a43,43,0,0,1,16.89,3.75c10,4.43,18.13,12.6,19.8,23.73C304.6,300.23,297.85,313.28,286.63,319.83Z"/><path class="cls-14" d="M286.63,319.83a36.59,36.59,0,0,1-6.16,2.9,50.14,50.14,0,0,1-25.56,2.07c-.64-.1-1.28-.24-1.92-.39a40.52,40.52,0,0,1,29.84-60.86c10,4.43,18.13,12.6,19.8,23.73C304.6,300.23,297.85,313.28,286.63,319.83Z"/><path class="cls-15" d="M263.85,328.09a53.44,53.44,0,0,1-9.35-.82,56.59,56.59,0,0,1-33.25-19.7,23.1,23.1,0,0,1,.78-30.12c11.79-12.89,28.22-20.45,44-20.15,16.83.28,36.25,10.75,39.11,29.6,2.08,13.73-4.83,27.83-17.19,35.08a41.18,41.18,0,0,1-6.56,3.09h0A50.93,50.93,0,0,1,263.85,328.09Zm1.33-65.8c-14.11,0-28.81,6.89-39.46,18.53a18.07,18.07,0,0,0-.61,23.57,51.54,51.54,0,0,0,30.26,18,48,48,0,0,0,24.25-2h0a36.32,36.32,0,0,0,5.76-2.71c10.61-6.23,16.55-18.29,14.78-30-2.45-16.13-19.47-25.1-34.25-25.35Z"/><path class="cls-16" d="M277.46,279.7a7,7,0,1,1,7,7A7,7,0,0,1,277.46,279.7Z"/><path class="cls-17" d="M268.52,239.71c-9.3-2.54-19.32-8.12-20.85-17.64-1.39-8.64,5.47-17.06,13.78-19.81s17.49-.95,25.64,2.25A78.77,78.77,0,0,1,314.86,223c2.23,2.3,4.4,4.9,5,8.06C322.86,248,276.8,242,268.52,239.71Z"/><path class="cls-17" d="M485.69,280.32c9.84.49,20.21.51,28.88-4.16s14.76-15.6,10.79-24.62c-2.35-5.34-7.68-8.92-13.31-10.46s-11.57-1.32-17.39-.89a259.34,259.34,0,0,0-48.39,8.24c-15.38,4.14-23.9,16.13-6.82,24.13C453.1,279,470.91,279.58,485.69,280.32Z"/></svg>