<svg class="cyberscope" fill="#fff" viewBox="0 0 187.7 59.7" xmlns="http://www.w3.org/2000/svg">
	<mask id="mask" x="-2.9" y="-10.4" width="92" height="80.3">
		<path d="M31.4,49.8c-0.7,0.3-1.5,0.3-2.2,0c-5.5-2.1-10.2-5.8-13.5-10.6s-5.1-10.5-5.1-16.4v-7.9 c0-0.3,0.1-0.7,0.3-0.9c0.2-0.3,0.5-0.5,0.8-0.6c12.1-3.6,25-3.6,37.1,0c0.3,0.1,0.6,0.3,0.8,0.6c0.2,0.3,0.3,0.6,0.3,0.9v7.9 c0,5.9-1.8,11.6-5.1,16.4C41.6,44,36.9,47.7,31.4,49.8z"/>
	</mask>
	<g mask="url(#mask)">
		<path fill="#139084" d="M-2.9,37.1V-0.1C23.2-9.4,71-21.8,53.8,10.5S8.8,41.7-2.9,37.1z"/>
		<path fill="#139084" d="M4.9,40.9c29.6,5,60.5-18.5,54.9-43.7c4.6,3.3,16.6,9.4,24,8.7c9.2-0.9-0.6,20.3,2.1,22.6 c2.2,1.8,3,23.1,3.2,33.6L7.6,69.9L4.9,40.9z"/>
		<path d="M12.5,14.4c-3,1.1-0.3,14.9,0,13.1c0.5-3-1.1-9,4.8-12.3c6.4-2.3,20.3-2.7,18.4-3.5 C32.7,10.4,18.3,12.2,12.5,14.4z"/>
	</g>
	<g>
		<path fill="#17AEA0" d="M75.7,17.4H73c-0.2-0.9-0.6-1.6-1.2-2.1c-0.7-0.5-1.5-0.8-2.4-0.8c-1.2,0-2.3,0.5-3.1,1.4 c-0.8,0.9-1.2,2.3-1.2,4c0,1.8,0.4,3.1,1.2,4c0.8,0.9,1.8,1.4,3.1,1.4c0.9,0,1.7-0.2,2.4-0.7c0.7-0.5,1.1-1.2,1.3-2.1l2.8,0 c-0.1,1-0.5,1.9-1.1,2.7c-0.6,0.8-1.3,1.4-2.2,1.9c-0.9,0.5-2,0.7-3.2,0.7c-1.3,0-2.5-0.3-3.6-0.9c-1.1-0.6-1.9-1.5-2.5-2.7 s-0.9-2.6-0.9-4.2c0-1.6,0.3-3.1,0.9-4.2s1.4-2.1,2.5-2.7c1.1-0.6,2.2-0.9,3.6-0.9c1.1,0,2.2,0.2,3.1,0.6c0.9,0.4,1.7,1,2.3,1.8 S75.6,16.2,75.7,17.4z"/>
		<path fill="#17AEA0" d="M79.8,32c-0.4,0-0.7,0-1-0.1c-0.3-0.1-0.5-0.1-0.7-0.2l0.6-2.2c0.6,0.2,1.1,0.2,1.5,0.1c0.4-0.1,0.7-0.5,1-1.1 l0.3-0.7L77.4,16h2.9l2.6,8.7H83l2.6-8.7h2.9L83.9,29c-0.3,0.9-0.8,1.6-1.5,2.2C81.7,31.7,80.9,32,79.8,32z"/>
		<path fill="#17AEA0" d="M90.5,27.5V12.2h2.7v5.7h0.1c0.1-0.3,0.3-0.6,0.6-0.9c0.3-0.3,0.6-0.6,1-0.8c0.4-0.2,1-0.3,1.7-0.3 c0.9,0,1.7,0.2,2.4,0.7c0.7,0.5,1.3,1.1,1.7,2s0.6,1.9,0.6,3.2c0,1.3-0.2,2.3-0.6,3.2c-0.4,0.9-1,1.6-1.7,2s-1.5,0.7-2.4,0.7 c-0.7,0-1.2-0.1-1.6-0.3s-0.8-0.5-1-0.8s-0.5-0.6-0.6-0.9h-0.2v1.8H90.5z M93.1,21.8c0,1.1,0.2,2,0.7,2.7c0.5,0.7,1.1,1,2,1 c0.9,0,1.6-0.4,2-1.1c0.5-0.7,0.7-1.6,0.7-2.7c0-1.1-0.2-1.9-0.7-2.6c-0.5-0.7-1.1-1-2-1c-0.9,0-1.5,0.3-2,1 C93.4,19.8,93.1,20.7,93.1,21.8z"/>
		<path fill="#17AEA0" d="M108.7,27.7c-1.1,0-2.1-0.2-3-0.7c-0.8-0.5-1.5-1.2-1.9-2c-0.4-0.9-0.7-1.9-0.7-3.1c0-1.2,0.2-2.2,0.7-3.1 c0.4-0.9,1.1-1.6,1.9-2.1c0.8-0.5,1.8-0.7,2.9-0.7c0.9,0,1.8,0.2,2.6,0.6c0.8,0.4,1.4,1,1.9,1.9c0.5,0.9,0.7,2,0.7,3.3v0.8h-8 c0,1,0.3,1.7,0.8,2.3s1.2,0.8,2.1,0.8c0.6,0,1.1-0.1,1.5-0.4c0.4-0.3,0.7-0.6,0.9-1.1l2.5,0.3c-0.2,1-0.8,1.8-1.7,2.4 C111.1,27.4,110,27.7,108.7,27.7z M105.8,20.7h5.4c0-0.8-0.2-1.4-0.7-1.9c-0.5-0.5-1.1-0.8-1.9-0.8c-0.8,0-1.5,0.3-2,0.8 C106.1,19.3,105.8,20,105.8,20.7z"/>
		<path fill="#17AEA0" d="M116,27.5V16h2.6V18h0.1c0.2-0.7,0.6-1.2,1.1-1.5c0.5-0.4,1.1-0.5,1.8-0.5c0.3,0,0.6,0,0.9,0.1 c0.3,0.1,0.5,0.2,0.7,0.3l-0.8,2.2c-0.1-0.1-0.3-0.1-0.5-0.2c-0.2,0-0.4-0.1-0.6-0.1c-0.7,0-1.3,0.2-1.8,0.7 c-0.5,0.5-0.7,1.1-0.7,1.8v6.7H116z"/>
		<path d="M133.8,19.1l-2.5,0.3c-0.1-0.4-0.3-0.7-0.7-1c-0.3-0.3-0.8-0.4-1.4-0.4c-0.6,0-1,0.1-1.4,0.4 c-0.4,0.2-0.6,0.6-0.6,0.9c0,0.3,0.1,0.6,0.4,0.8c0.3,0.2,0.7,0.4,1.2,0.5l2,0.4c2.1,0.5,3.2,1.5,3.2,3.1c0,0.7-0.2,1.4-0.6,1.9 c-0.4,0.5-1,1-1.7,1.3c-0.7,0.3-1.6,0.5-2.5,0.5c-1.4,0-2.5-0.3-3.4-0.9c-0.9-0.6-1.4-1.4-1.5-2.5l2.6-0.3c0.2,1,1,1.6,2.3,1.6 c0.6,0,1.2-0.1,1.5-0.4c0.4-0.3,0.6-0.6,0.6-1c0-0.6-0.5-1.1-1.5-1.3l-2-0.4c-1.1-0.2-1.9-0.6-2.4-1.2c-0.5-0.5-0.8-1.2-0.8-2.1 c0-0.7,0.2-1.3,0.6-1.8s0.9-0.9,1.6-1.2s1.5-0.4,2.4-0.4c1.3,0,2.4,0.3,3.2,0.9C133.1,17.3,133.6,18.1,133.8,19.1z"/>
		<path d="M141.3,27.7c-1.1,0-2.1-0.3-2.9-0.8s-1.5-1.2-1.9-2.1c-0.4-0.9-0.7-1.9-0.7-3.1c0-1.2,0.2-2.2,0.7-3.1 c0.4-0.9,1.1-1.6,1.9-2.1s1.8-0.8,2.9-0.8c0.9,0,1.8,0.2,2.5,0.5s1.3,0.8,1.7,1.4s0.7,1.3,0.7,2.2h-2.6c-0.1-0.6-0.4-1-0.7-1.4 c-0.4-0.4-0.9-0.6-1.6-0.6c-0.8,0-1.5,0.3-2,1c-0.5,0.7-0.8,1.6-0.8,2.7c0,1.2,0.3,2.1,0.8,2.8s1.2,1,2,1c0.6,0,1.1-0.2,1.5-0.5 s0.7-0.8,0.8-1.4h2.6c-0.1,0.8-0.3,1.5-0.7,2.1c-0.4,0.6-1,1.1-1.7,1.5C143.1,27.5,142.2,27.7,141.3,27.7z"/>
		<path d="M153.4,27.7c-1.1,0-2.1-0.2-2.9-0.7s-1.5-1.2-1.9-2.1c-0.4-0.9-0.7-1.9-0.7-3.1c0-1.2,0.2-2.2,0.7-3.1 c0.5-0.9,1.1-1.6,1.9-2.1c0.8-0.5,1.8-0.7,2.9-0.7c1.1,0,2.1,0.2,2.9,0.7c0.8,0.5,1.5,1.2,1.9,2.1c0.4,0.9,0.7,1.9,0.7,3.1 c0,1.2-0.2,2.2-0.7,3.1s-1.1,1.6-1.9,2.1C155.5,27.5,154.5,27.7,153.4,27.7z M153.4,25.6c0.6,0,1.1-0.2,1.5-0.5s0.7-0.8,0.9-1.4 s0.3-1.2,0.3-1.9c0-0.7-0.1-1.3-0.3-1.9s-0.5-1-0.9-1.4S154,18,153.4,18c-0.6,0-1.1,0.2-1.5,0.5s-0.7,0.8-0.9,1.4s-0.3,1.2-0.3,1.9 c0,0.7,0.1,1.3,0.3,1.9s0.5,1,0.9,1.4S152.8,25.6,153.4,25.6z"/>
		<path d="M161.2,31.8V16h2.7v1.9h0.2c0.1-0.3,0.3-0.6,0.6-0.9c0.3-0.3,0.6-0.6,1-0.8c0.4-0.2,1-0.3,1.7-0.3 c0.9,0,1.7,0.2,2.4,0.7c0.7,0.5,1.3,1.1,1.7,2s0.6,1.9,0.6,3.2c0,1.3-0.2,2.3-0.6,3.2c-0.4,0.9-1,1.6-1.7,2s-1.5,0.7-2.4,0.7 c-0.7,0-1.2-0.1-1.6-0.3s-0.8-0.5-1-0.8c-0.3-0.3-0.5-0.6-0.6-0.9h-0.1v6.1H161.2z M163.8,21.8c0,1.1,0.2,2,0.7,2.7 c0.5,0.7,1.1,1,2,1c0.9,0,1.6-0.4,2-1.1c0.5-0.7,0.7-1.6,0.7-2.7c0-1.1-0.2-1.9-0.7-2.6c-0.5-0.7-1.1-1-2-1c-0.9,0-1.5,0.3-2,1 C164,19.8,163.8,20.7,163.8,21.8z"/>
		<path d="M179.3,27.7c-1.1,0-2.1-0.2-3-0.7c-0.8-0.5-1.5-1.2-1.9-2c-0.4-0.9-0.7-1.9-0.7-3.1c0-1.2,0.2-2.2,0.7-3.1 c0.4-0.9,1.1-1.6,1.9-2.1c0.8-0.5,1.8-0.7,2.9-0.7c0.9,0,1.8,0.2,2.6,0.6c0.8,0.4,1.4,1,1.9,1.9c0.5,0.9,0.7,2,0.7,3.3v0.8h-8 c0,1,0.3,1.7,0.8,2.3s1.2,0.8,2.1,0.8c0.6,0,1.1-0.1,1.5-0.4c0.4-0.3,0.7-0.6,0.9-1.1l2.5,0.3c-0.2,1-0.8,1.8-1.7,2.4 C181.8,27.4,180.7,27.7,179.3,27.7z M176.5,20.7h5.4c0-0.8-0.2-1.4-0.7-1.9c-0.5-0.5-1.1-0.8-1.9-0.8c-0.8,0-1.5,0.3-2,0.8 C176.8,19.3,176.5,20,176.5,20.7z"/>
	</g>
	<g>
		<path d="M60,48.5v-8.7h1.5V43h0.1c0.1-0.2,0.2-0.3,0.3-0.5c0.1-0.2,0.3-0.3,0.6-0.5c0.2-0.1,0.6-0.2,0.9-0.2 c0.5,0,1,0.1,1.4,0.4c0.4,0.3,0.7,0.6,1,1.1s0.4,1.1,0.4,1.8c0,0.7-0.1,1.3-0.4,1.8c-0.2,0.5-0.6,0.9-1,1.2s-0.9,0.4-1.4,0.4 c-0.4,0-0.7-0.1-0.9-0.2S62.1,48.2,62,48s-0.3-0.3-0.3-0.5h-0.1v1H60z M61.5,45.2c0,0.6,0.1,1.1,0.4,1.5c0.3,0.4,0.6,0.6,1.1,0.6 c0.5,0,0.9-0.2,1.2-0.6c0.3-0.4,0.4-0.9,0.4-1.5c0-0.6-0.1-1.1-0.4-1.5c-0.3-0.4-0.6-0.6-1.2-0.6c-0.5,0-0.9,0.2-1.1,0.6 C61.7,44.1,61.5,44.6,61.5,45.2z"/>
		<path d="M68.2,51c-0.2,0-0.4,0-0.6-0.1c-0.2,0-0.3-0.1-0.4-0.1l0.4-1.2c0.3,0.1,0.6,0.1,0.9,0.1s0.4-0.3,0.6-0.6 l0.2-0.4L66.8,42h1.6l1.5,4.9H70l1.5-4.9h1.6l-2.6,7.4c-0.2,0.5-0.5,0.9-0.8,1.2C69.3,50.9,68.8,51,68.2,51z"/>
		<path d="M84.7,42.7h-1.6c-0.1-0.5-0.3-0.9-0.7-1.2c-0.4-0.3-0.8-0.4-1.4-0.4c-0.7,0-1.3,0.3-1.8,0.8 c-0.5,0.5-0.7,1.3-0.7,2.3c0,1,0.2,1.8,0.7,2.3c0.5,0.5,1,0.8,1.7,0.8c0.5,0,1-0.1,1.4-0.4c0.4-0.3,0.6-0.7,0.7-1.2l1.6,0 c-0.1,0.6-0.3,1.1-0.6,1.5c-0.3,0.5-0.7,0.8-1.3,1.1c-0.5,0.3-1.1,0.4-1.8,0.4c-0.8,0-1.5-0.2-2.1-0.5c-0.6-0.4-1.1-0.9-1.4-1.5 S77,45.1,77,44.1c0-0.9,0.2-1.7,0.5-2.4s0.8-1.2,1.4-1.5c0.6-0.4,1.3-0.5,2-0.5c0.6,0,1.2,0.1,1.8,0.4c0.5,0.2,1,0.6,1.3,1 S84.6,42.1,84.7,42.7z"/>
		<path d="M89,48.6c-0.6,0-1.2-0.1-1.7-0.4s-0.8-0.7-1.1-1.2c-0.3-0.5-0.4-1.1-0.4-1.8c0-0.7,0.1-1.3,0.4-1.8 c0.3-0.5,0.6-0.9,1.1-1.2c0.5-0.3,1-0.4,1.7-0.4c0.6,0,1.2,0.1,1.7,0.4c0.5,0.3,0.8,0.7,1.1,1.2c0.3,0.5,0.4,1.1,0.4,1.8 c0,0.7-0.1,1.3-0.4,1.8s-0.6,0.9-1.1,1.2C90.2,48.5,89.6,48.6,89,48.6z M89,47.4c0.3,0,0.6-0.1,0.9-0.3s0.4-0.4,0.5-0.8 s0.2-0.7,0.2-1.1c0-0.4-0.1-0.8-0.2-1.1s-0.3-0.6-0.5-0.8s-0.5-0.3-0.9-0.3c-0.4,0-0.6,0.1-0.9,0.3s-0.4,0.5-0.5,0.8 s-0.2,0.7-0.2,1.1c0,0.4,0.1,0.8,0.2,1.1s0.3,0.6,0.5,0.8S88.6,47.4,89,47.4z"/>
		<path d="M94.2,41c-0.2,0-0.5-0.1-0.6-0.2c-0.2-0.2-0.3-0.4-0.3-0.6c0-0.2,0.1-0.4,0.3-0.6c0.2-0.2,0.4-0.2,0.6-0.2 c0.2,0,0.5,0.1,0.6,0.2c0.2,0.2,0.3,0.4,0.3,0.6c0,0.2-0.1,0.4-0.3,0.6C94.6,40.9,94.4,41,94.2,41z M93.4,48.5V42h1.5v6.5H93.4z"/>
		<path d="M98.1,44.7v3.8h-1.5V42H98v1.1h0.1c0.2-0.4,0.4-0.7,0.7-0.9c0.3-0.2,0.7-0.3,1.2-0.3c0.7,0,1.2,0.2,1.6,0.6 c0.4,0.4,0.6,1,0.6,1.8v4.2h-1.5v-3.9c0-0.4-0.1-0.8-0.3-1c-0.2-0.2-0.5-0.4-0.9-0.4c-0.4,0-0.7,0.1-1,0.4 C98.2,43.8,98.1,44.2,98.1,44.7z"/>
		<path d="M109,43.7l-1.4,0.2c-0.1-0.2-0.2-0.4-0.4-0.6c-0.2-0.2-0.5-0.2-0.8-0.2c-0.3,0-0.6,0.1-0.8,0.2 c-0.2,0.1-0.3,0.3-0.3,0.5c0,0.2,0.1,0.3,0.2,0.5c0.1,0.1,0.4,0.2,0.7,0.3l1.1,0.2c1.2,0.3,1.8,0.9,1.8,1.8c0,0.4-0.1,0.8-0.4,1.1 c-0.2,0.3-0.6,0.6-1,0.7c-0.4,0.2-0.9,0.3-1.4,0.3c-0.8,0-1.4-0.2-1.9-0.5c-0.5-0.3-0.8-0.8-0.9-1.4l1.5-0.1 c0.1,0.6,0.6,0.9,1.3,0.9c0.4,0,0.7-0.1,0.9-0.2c0.2-0.1,0.3-0.3,0.3-0.6c0-0.4-0.3-0.6-0.9-0.7l-1.1-0.2c-0.6-0.1-1.1-0.4-1.4-0.7 c-0.3-0.3-0.5-0.7-0.4-1.2c0-0.4,0.1-0.8,0.3-1.1s0.5-0.5,0.9-0.7s0.9-0.2,1.4-0.2c0.8,0,1.4,0.2,1.8,0.5S108.9,43.1,109,43.7z"/>
		<path d="M113.3,48.6c-0.7,0-1.2-0.1-1.7-0.4s-0.8-0.7-1.1-1.2c-0.3-0.5-0.4-1.1-0.4-1.8c0-0.7,0.1-1.3,0.4-1.8 c0.3-0.5,0.6-0.9,1.1-1.2c0.5-0.3,1-0.4,1.7-0.4c0.5,0,1,0.1,1.4,0.3s0.7,0.5,1,0.8s0.4,0.8,0.4,1.2h-1.5c-0.1-0.3-0.2-0.6-0.4-0.8 c-0.2-0.2-0.5-0.3-0.9-0.3c-0.5,0-0.9,0.2-1.1,0.6c-0.3,0.4-0.4,0.9-0.4,1.6c0,0.7,0.1,1.2,0.4,1.6s0.7,0.6,1.2,0.6 c0.3,0,0.6-0.1,0.9-0.3s0.4-0.5,0.5-0.8h1.5c0,0.5-0.2,0.9-0.4,1.2c-0.2,0.4-0.6,0.6-1,0.8C114.3,48.5,113.8,48.6,113.3,48.6z"/>
		<path d="M120.2,48.6c-0.6,0-1.2-0.1-1.7-0.4s-0.8-0.7-1.1-1.2c-0.3-0.5-0.4-1.1-0.4-1.8c0-0.7,0.1-1.3,0.4-1.8 c0.3-0.5,0.6-0.9,1.1-1.2c0.5-0.3,1-0.4,1.7-0.4c0.6,0,1.2,0.1,1.7,0.4c0.5,0.3,0.8,0.7,1.1,1.2c0.3,0.5,0.4,1.1,0.4,1.8 c0,0.7-0.1,1.3-0.4,1.8s-0.6,0.9-1.1,1.2C121.4,48.5,120.9,48.6,120.2,48.6z M120.2,47.4c0.3,0,0.6-0.1,0.9-0.3s0.4-0.4,0.5-0.8 s0.2-0.7,0.2-1.1c0-0.4-0.1-0.8-0.2-1.1s-0.3-0.6-0.5-0.8s-0.5-0.3-0.9-0.3c-0.4,0-0.6,0.1-0.9,0.3s-0.4,0.5-0.5,0.8 s-0.2,0.7-0.2,1.1c0,0.4,0.1,0.8,0.2,1.1s0.3,0.6,0.5,0.8S119.9,47.4,120.2,47.4z"/>
		<path d="M124.7,51v-9h1.5V43h0.1c0.1-0.2,0.2-0.3,0.3-0.5c0.1-0.2,0.3-0.3,0.6-0.5c0.2-0.1,0.6-0.2,0.9-0.2 c0.5,0,1,0.1,1.4,0.4c0.4,0.3,0.7,0.6,1,1.1s0.4,1.1,0.4,1.8c0,0.7-0.1,1.3-0.4,1.8c-0.2,0.5-0.6,0.9-1,1.2 c-0.4,0.3-0.9,0.4-1.4,0.4c-0.4,0-0.7-0.1-0.9-0.2s-0.4-0.3-0.6-0.5c-0.1-0.2-0.3-0.3-0.3-0.5h-0.1V51H124.7z M126.2,45.2 c0,0.6,0.1,1.1,0.4,1.5c0.3,0.4,0.6,0.6,1.1,0.6c0.5,0,0.9-0.2,1.2-0.6c0.3-0.4,0.4-0.9,0.4-1.5c0-0.6-0.1-1.1-0.4-1.5 c-0.3-0.4-0.6-0.6-1.2-0.6c-0.5,0-0.9,0.2-1.1,0.6C126.3,44.1,126.2,44.6,126.2,45.2z"/>
		<path d="M135.1,48.6c-0.7,0-1.2-0.1-1.7-0.4s-0.8-0.7-1.1-1.2c-0.3-0.5-0.4-1.1-0.4-1.8c0-0.7,0.1-1.3,0.4-1.8 c0.3-0.5,0.6-0.9,1.1-1.2c0.5-0.3,1-0.4,1.6-0.4c0.5,0,1,0.1,1.5,0.3c0.5,0.2,0.8,0.6,1.1,1.1s0.4,1.1,0.4,1.9v0.5h-4.6 c0,0.6,0.2,1,0.5,1.3s0.7,0.5,1.2,0.5c0.3,0,0.6-0.1,0.9-0.2c0.2-0.1,0.4-0.4,0.5-0.6l1.4,0.2c-0.1,0.6-0.5,1-1,1.4 C136.5,48.5,135.8,48.6,135.1,48.6z M133.4,44.6h3.1c0-0.4-0.1-0.8-0.4-1.1c-0.3-0.3-0.6-0.4-1.1-0.4c-0.5,0-0.8,0.2-1.1,0.5 C133.6,43.8,133.4,44.2,133.4,44.6z"/>
	</g>
</svg>