<?xml version="1.0" encoding="UTF-8"?>
<svg width="256px" height="256px" viewBox="0 0 256 256" version="1.1" xmlns="http://www.w3.org/2000/svg" xmlns:xlink="http://www.w3.org/1999/xlink">
    <g id="Fingerprint-Full" stroke="none" stroke-width="1" fill="none" fill-rule="evenodd">
        <path d="M192.423826,120 C190.646516,175.090864 157.876701,218.998652 117.712133,218.998652 C77.5471247,218.998652 44.7773101,175.090864 43,120 L192.423826,120 Z" id="Path-Copy" fill="#00D7E9" fill-rule="nonzero"></path>
        <path d="M192.924185,121 C192.974582,119.428978 193,117.848952 193,116.26087 C193,58.679013 159.645035,12 118.5,12 C77.3549647,12 44,58.679013 44,116.26087 C44,117.848952 44.0254176,119.428978 44.0753765,121 L192.924185,121 Z" id="Path-Copy-2" fill="#0F277F" fill-rule="nonzero"></path>
        <path d="M67.2217953,120 C65.0305127,131.528157 65.6679687,145.019788 70.1024454,160.247195 C70.8265672,162.732532 73.2932449,164.118514 75.6125466,163.343024 C77.9318482,162.567535 79.2256772,159.923799 78.5015553,157.438462 C74.1990571,142.664563 73.9219023,130.194033 76.2381245,120 L67.2217953,120 Z M154.478042,120 L145.093933,120 C146.721667,123.953818 147.637158,128.381414 147.637158,133.108836 C147.637158,135.7125 149.606717,137.823057 152.03644,137.823057 C154.466164,137.823057 156.435723,135.7125 156.435723,133.108836 C156.435723,128.511056 155.744595,124.104673 154.478042,120 Z M93.3284567,120 L83.9883403,120 C81.8837236,127.383414 81.7112717,135.359405 82.7917355,142.986544 C85.100039,159.276537 93.2255135,175.337889 102.191251,183.547706 C104.03851,185.239169 106.815337,185.005815 108.393799,183.026313 C109.972262,181.047283 109.754497,178.071667 107.907239,176.380204 C100.794479,169.866564 93.5339032,155.990724 91.4908765,141.571335 C90.3998544,133.870654 90.8270248,126.418413 93.3284567,120 Z M102.034197,120 L116.285232,120 C111.129273,121.384567 107.268463,126.456598 106.966672,132.905181 C106.510466,142.669277 112.25197,168.128902 139.295679,177.023695 C141.6185,177.78787 142.923767,180.425006 142.210643,182.913643 C141.497959,185.402752 139.037001,186.800991 136.71418,186.037287 C104.707201,175.509959 97.5860822,145.123972 98.1795454,132.433288 C98.3924707,127.881707 99.7668065,123.582808 102.034197,120 Z M122.05929,120 C127.376263,121.399181 131.321099,126.541454 131.321099,132.66947 C131.321099,132.817968 131.327258,132.965052 131.340016,133.11025 C131.812499,145.088144 141.060671,154.6203 152.329433,154.6203 C163.912303,154.6203 173.302571,144.55968 173.302571,132.146663 C173.302571,128.127789 172.857804,124.042445 171.989386,120 L162.931263,120 C163.969054,124.02076 164.504007,128.120718 164.504007,132.146663 C164.504007,139.351408 159.053736,145.191857 152.329433,145.191857 C145.594131,145.191857 140.119664,139.338208 140.119664,132.146663 C140.119664,131.998637 140.113065,131.852024 140.100747,131.707298 C139.930055,127.374928 138.61511,123.359826 136.471339,120 L122.05929,120 Z M119.419281,127.330614 C121.847685,127.410285 123.756533,129.584012 123.682625,132.186263 C123.495656,138.74563 126.480129,149.428528 133.320573,155.631029 C138.374469,160.213253 146.496424,162.703776 158.356009,161.186268 C160.768576,160.877958 162.957659,162.723575 163.245812,165.308855 C163.533965,167.893662 161.811646,170.23993 159.399079,170.54824 C146.067054,172.253846 135.18015,169.667152 127.63758,162.829174 L127.63758,162.828703 C118.348495,154.406274 114.637261,140.717118 114.88802,131.899167 C114.961928,129.296916 116.990437,127.251416 119.419281,127.330614 Z" id="Shape-Copy" fill="#FFFFFF"></path>
        <path d="M81.193673,51.9618469 C103.861855,36.3568308 137.090515,35.6671402 160.4771,51.9769324 C162.513528,53.3968559 163.090274,56.3173162 161.76477,58.4995293 C160.439706,60.6817425 157.714351,61.2993055 155.677923,59.879382 C135.292088,45.6622327 105.804578,46.2255821 85.9488574,59.8944675 C83.9049508,61.3016626 81.1831147,60.666657 79.869929,58.4759582 C78.5567432,56.2852595 79.1493265,53.369042 81.193673,51.9618469 Z M62.7725579,90.7928897 C93.7272286,42.4626905 154.646291,51.185886 178.395377,90.5463359 C179.714282,92.7327918 179.129618,95.6508949 177.08967,97.06469 C175.049283,98.478485 172.325688,97.851965 171.006343,95.665509 C150.320917,61.3818044 97.0733227,53.9008062 70.0269745,96.1279742 C68.6517589,98.2748307 65.9132056,98.8207375 63.9102123,97.3470719 C61.9067791,95.8738776 61.3977821,92.9392747 62.7725579,90.7928897 Z M173.312887,120.141747 C168.3263,96.9279776 149.377711,75.1067889 120.550093,75.1067889 C104.724115,75.1067889 88.4049767,82.6589718 78.0433469,97.3263293 C73.5222044,103.726356 70.2135041,111.36481 68.5452962,120.141747 L77.5616255,120.141747 C79.0802578,113.457453 81.7136682,107.75183 85.0584426,103.016866 C93.6014091,90.9234736 107.211909,84.535232 120.550093,84.535232 C143.8025,84.535232 159.43975,101.488987 164.254764,120.141747 L173.312887,120.141747 Z M155.801543,120.141747 L146.417434,120.141747 C139.932452,104.391533 122.143953,96.1652165 105.905322,106.472862 C100.419417,109.955257 96.7829701,114.67325 94.6515178,120.141747 L85.3118413,120.141747 C87.7464041,111.601935 92.7655454,103.855526 101.421134,98.3611009 C124.143867,83.9369973 148.790407,97.4224994 155.801543,120.141747 Z M103.357698,120.141747 C107.066293,114.281498 113.162818,110.337581 120.469586,110.337581 C127.666812,110.337581 134.017176,114.222571 137.79484,120.141747 L123.382351,120.141747 C122.449263,119.896136 121.473503,119.766024 120.469586,119.766024 C119.483267,119.766024 118.525543,119.895665 117.608733,120.141747 L103.357698,120.141747 Z" id="Shape-Copy-2" fill="#00D7E9"></path>
        <rect id="Rectangle" fill="#0F277F" fill-rule="nonzero" x="16" y="120" width="211" height="14" rx="1.5"></rect>
        <path d="M145.253953,156.357628 C145.53407,151.756421 148.989716,148.261085 153.309518,147.538848 C158.09792,146.738235 164.33354,145.524424 169.137269,143.991261 C175.032444,142.109527 183.083117,138.370122 187.970653,135.99647 C190.705626,134.667843 193.862241,134.667843 196.597213,135.99647 C201.484749,138.370122 209.535423,142.109527 215.430597,143.991261 C220.234327,145.524424 226.469946,146.738235 231.258349,147.538848 C235.578151,148.261085 239.033797,151.756421 239.313914,156.357628 C240.512971,176.039863 239.21315,227.584728 195.001948,242.972045 C193.259288,243.578779 191.308904,243.578779 189.565918,242.972045 C145.354717,227.584728 144.054733,176.039863 145.253953,156.357628 Z" id="Path-Copy-3" fill="#FFD700" fill-rule="nonzero"></path>
        <path d="M188.058015,227.794255 C185.994802,226.809043 184.079963,225.700422 182.303388,224.486267 L199.493898,150.372971 C201.269167,151.240618 203.326185,152.212079 205.381246,153.109633 L188.058015,227.794255 Z M193.290562,149 L176.818443,220.015001 C172.595492,215.935619 169.40268,211.161158 167,206.109283 L178.889809,154.84905 C182.43937,153.543112 186.695257,151.542438 189.83035,149.993462 C190.932883,149.448949 192.104222,149.117909 193.290562,149 Z" id="Shape" fill="#FFFFFF"></path>
        <path d="M158.087283,166.610747 C158.27218,161.999571 161.721956,158.488078 166.031975,157.676464 C169.116849,157.095512 172.642279,156.317243 175.478668,155.37947 C179.250953,154.132658 184.242188,151.797506 187.794685,150.042619 C190.608246,148.65246 193.871821,148.65246 196.685383,150.042619 C200.237879,151.797506 205.229114,154.132658 209.0014,155.37947 C211.837788,156.317243 215.363219,157.095512 218.448093,157.676464 C222.758112,158.488078 226.207888,161.999571 226.392785,166.610747 C227.027369,182.433949 224.933176,217.913605 195.02229,229.313668 C193.237237,229.993966 191.24283,229.993966 189.457777,229.313668 C159.546891,217.913605 157.452699,182.433949 158.087283,166.610747 Z" id="Path-Copy-4" stroke="#0F277F" stroke-width="6"></path>
    </g>
</svg>