<svg id="Unicrypt_Logo" data-name="Unicrypt Logo" xmlns="http://www.w3.org/2000/svg" xmlns:xlink="http://www.w3.org/1999/xlink" viewBox="0 0 1542.75 311.84"><defs><style>.cls-1{fill:url(#linear-gradient);}.cls-2{fill:url(#linear-gradient-2);}.cls-3{fill:url(#linear-gradient-3);}.cls-4{fill:url(#linear-gradient-4);}.cls-5{fill:url(#linear-gradient-5);}.cls-6{fill:url(#linear-gradient-6);}.cls-7{fill:url(#linear-gradient-7);}.cls-8{fill:url(#linear-gradient-8);}.cls-9{fill:url(#linear-gradient-9);}.cls-10{fill:url(#linear-gradient-10);}.cls-11{fill:url(#linear-gradient-11);}.cls-12{fill:url(#linear-gradient-12);}.cls-13{fill:url(#linear-gradient-13);}.cls-14{fill:url(#linear-gradient-14);}.cls-15{fill:url(#linear-gradient-15);}.cls-16{fill:url(#linear-gradient-16);}.cls-17{fill:url(#linear-gradient-17);}.cls-18{fill:url(#linear-gradient-18);}.cls-19{fill:#00d674;}.cls-20{fill:url(#linear-gradient-19);}.cls-21{fill:url(#linear-gradient-20);}.cls-22{fill:url(#Dégradé_sans_nom_30);}.cls-23{fill:url(#Dégradé_sans_nom_2);}.cls-24{fill:url(#Dégradé_sans_nom_2-2);}.cls-25{fill:url(#Dégradé_sans_nom_2-3);}</style><linearGradient id="linear-gradient" x1="669.23" y1="332.74" x2="669.23" y2="379.7" gradientTransform="matrix(1, 0, 0, 0.89, -0.58, -4.4)" gradientUnits="userSpaceOnUse"><stop offset="0" stop-color="#00f13e"/><stop offset="1" stop-color="#00c886"/></linearGradient><linearGradient id="linear-gradient-2" x1="768.85" y1="335.55" x2="768.85" y2="377.15" xlink:href="#linear-gradient"/><linearGradient id="linear-gradient-3" x1="856.8" y1="335.55" x2="856.8" y2="377.15" xlink:href="#linear-gradient"/><linearGradient id="linear-gradient-4" x1="959.35" y1="333.55" x2="959.35" y2="379.83" xlink:href="#linear-gradient"/><linearGradient id="linear-gradient-5" x1="1071.95" y1="334.8" x2="1071.95" y2="377.96" xlink:href="#linear-gradient"/><linearGradient id="linear-gradient-6" x1="1175" y1="335.55" x2="1175" y2="377.15" xlink:href="#linear-gradient"/><linearGradient id="linear-gradient-7" x1="1270.13" y1="335.55" x2="1270.13" y2="377.15" xlink:href="#linear-gradient"/><linearGradient id="linear-gradient-8" x1="647.97" y1="103.64" x2="647.97" y2="245.11" gradientUnits="userSpaceOnUse"><stop offset="0" stop-color="#fff"/><stop offset="1" stop-color="#b1b1b1"/></linearGradient><linearGradient id="linear-gradient-9" x1="805.5" y1="103.64" x2="805.5" y2="241.28" xlink:href="#linear-gradient-8"/><linearGradient id="linear-gradient-10" x1="920.96" y1="103.64" x2="920.96" y2="241.28" xlink:href="#linear-gradient-8"/><linearGradient id="linear-gradient-11" x1="1012.08" y1="99.8" x2="1012.08" y2="245.11" xlink:href="#linear-gradient-8"/><linearGradient id="linear-gradient-12" x1="1148.74" y1="103.64" x2="1148.74" y2="241.28" xlink:href="#linear-gradient-8"/><linearGradient id="linear-gradient-13" x1="1263.5" y1="103.64" x2="1263.5" y2="241.28" xlink:href="#linear-gradient-8"/><linearGradient id="linear-gradient-14" x1="1396.67" y1="103.64" x2="1396.67" y2="241.28" xlink:href="#linear-gradient-8"/><linearGradient id="linear-gradient-15" x1="1504.43" y1="103.64" x2="1504.43" y2="241.28" xlink:href="#linear-gradient-8"/><linearGradient id="linear-gradient-16" x1="1604.81" y1="72.26" x2="1604.81" y2="107.52" xlink:href="#linear-gradient-8"/><linearGradient id="linear-gradient-17" x1="1609.27" y1="57.16" x2="1609.27" y2="122.62" xlink:href="#linear-gradient-8"/><linearGradient id="linear-gradient-18" x1="441.5" y1="209.17" x2="99.25" y2="209.17" gradientUnits="userSpaceOnUse"><stop offset="0" stop-color="#00fc00"/><stop offset="0.5" stop-color="#00ea38"/><stop offset="1" stop-color="#00d674"/></linearGradient><linearGradient id="linear-gradient-19" x1="326.09" y1="319.64" x2="170.24" y2="292.16" gradientUnits="userSpaceOnUse"><stop offset="0" stop-color="#00fc00"/><stop offset="0.12" stop-color="#2ffd2f"/><stop offset="0.3" stop-color="#6dfd6d"/><stop offset="0.48" stop-color="#a1fea1"/><stop offset="0.64" stop-color="#cafeca"/><stop offset="0.78" stop-color="#e7ffe7"/><stop offset="0.91" stop-color="#f9fff9"/><stop offset="1" stop-color="#fff"/></linearGradient><linearGradient id="linear-gradient-20" x1="158.6" y1="359" x2="158.46" y2="358.98" xlink:href="#linear-gradient-19"/><linearGradient id="Dégradé_sans_nom_30" x1="447.23" y1="209.12" x2="393.14" y2="173.99" gradientUnits="userSpaceOnUse"><stop offset="0" stop-color="#00f13e"/><stop offset="0.22" stop-color="#00f528"/><stop offset="0.49" stop-color="#00f912"/><stop offset="0.76" stop-color="#00fb04"/><stop offset="1" stop-color="#00fc00"/></linearGradient><linearGradient id="Dégradé_sans_nom_2" x1="353.12" y1="220.93" x2="309.99" y2="108.57" gradientTransform="matrix(1, 0, 0, 1, 0, 0)" xlink:href="#linear-gradient"/><linearGradient id="Dégradé_sans_nom_2-2" x1="365.91" y1="216.03" x2="365.91" y2="216.02" gradientTransform="matrix(1, 0, 0, 1, 0, 0)" xlink:href="#linear-gradient"/><linearGradient id="Dégradé_sans_nom_2-3" x1="226.3" y1="239.63" x2="247.86" y2="239.63" gradientTransform="matrix(1, 0, 0, 1, 0, 0)" xlink:href="#linear-gradient"/></defs><g id="Network"><path class="cls-1" d="M649.06,334.4l.19-39.51,30.07,28.29.12-25.64,6.37,0-.2,39.29-30.06-28.28-.13,25.86Z" transform="translate(-99.25 -57.16)"/><path class="cls-2" d="M778.65,303.36l-16.6-.08,0,9.37,16.1.08,0,5.33L762,318l-.06,11.66,16.6.08,0,5.32-23-.11.18-37,23,.11Z" transform="translate(-99.25 -57.16)"/><path class="cls-3" d="M858.35,303.75l-.15,31.69-6.37,0,.16-31.69-9.55-.05,0-5.33,25.46.13,0,5.33Z" transform="translate(-99.25 -57.16)"/><path class="cls-4" d="M935.59,298.81l10.86,24.8,11.36-26.47,10.73,26.58L980,299l6.86,0-18.79,39.31-10.73-26.3-11.11,26.19-17.53-39.49Z" transform="translate(-99.25 -57.16)"/><path class="cls-5" d="M1092,318.12c-.06,10.87-9.27,19.15-21.75,19.09s-21.61-8.43-21.56-19.31,9.27-19.16,21.75-19.09S1092.07,307.24,1092,318.12Zm-6.37,0c0-8.21-6.29-14-15.22-14.06s-15.31,5.7-15.35,13.91,6.29,14,15.21,14.06S1085.61,326.3,1085.65,318.08Z" transform="translate(-99.25 -57.16)"/><path class="cls-6" d="M1167.45,300c5,0,8.29.6,11,2.22a9.91,9.91,0,0,1,4.88,8.74c0,5.33-3.72,9.19-9.28,10.27l12.9,15.88-7.68,0-11.84-15.21h-1.12L1166.2,337l-6.36,0,.18-37Zm-1.15,17h2c1.75,0,8.86-.12,8.89-6,0-5.21-5.53-5.74-8.65-5.76h-2.18Z" transform="translate(-99.25 -57.16)"/><path class="cls-7" d="M1259.56,315.17l16.17-14.68,8.36,0-18.87,16.66L1284,337.54l-8.48,0L1260.78,321l-1.26,1.11-.07,15.31-6.37,0,.18-37,6.37,0Z" transform="translate(-99.25 -57.16)"/></g><g id="Unicrypt"><g id="Words"><path class="cls-8" d="M623.78,103.64v74.84q0,6,.45,12.32A33.89,33.89,0,0,0,627,202.21a19,19,0,0,0,7.22,8.31q4.92,3.19,13.87,3.19t13.78-3.19a19.81,19.81,0,0,0,7.21-8.31,32.56,32.56,0,0,0,2.83-11.41q.45-6.3.46-12.32V103.64h35.59v79.77q0,32.13-14.69,46.91t-45.18,14.79q-30.49,0-45.27-14.79T588,183.41V103.64Z" transform="translate(-99.25 -57.16)"/><path class="cls-9" d="M736.77,241.28V103.64h35.78l66.08,84.15V103.64h35.6V241.28h-35.6l-66.08-84.16v84.16Z" transform="translate(-99.25 -57.16)"/><path class="cls-10" d="M938.85,103.64V241.28H903.07V103.64Z" transform="translate(-99.25 -57.16)"/><path class="cls-11" d="M1064.74,149.64q-12.4-15.15-30.66-15.15a37.44,37.44,0,0,0-14.88,2.92,35.57,35.57,0,0,0-19.53,19.9,39.14,39.14,0,0,0-2.83,15,39.63,39.63,0,0,0,2.83,15.15,36.42,36.42,0,0,0,19.62,20.08,36.33,36.33,0,0,0,14.6,2.92q17.16,0,30.85-14.6v42.35l-3.65,1.28a104.89,104.89,0,0,1-15.33,4.29,74.64,74.64,0,0,1-14.06,1.37,71.89,71.89,0,0,1-50.29-20.54,75.34,75.34,0,0,1-16-23.18,74.39,74.39,0,0,1-.09-58.42,72.72,72.72,0,0,1,66.54-43.17,75.22,75.22,0,0,1,16.15,1.74,98.69,98.69,0,0,1,16.7,5.38Z" transform="translate(-99.25 -57.16)"/><path class="cls-12" d="M1206,241.28h-44.54l-34.14-52.94v52.94h-35.78V103.64h55.68a54.67,54.67,0,0,1,20.08,3.37,37.77,37.77,0,0,1,22.54,22.73,47,47,0,0,1,2.83,16.43q0,15.71-7.57,25.46t-22.36,13.24Zm-78.68-76.13h6.76q10.58,0,16.24-4.38t5.66-12.59q0-8.22-5.66-12.6t-16.24-4.38h-6.76Z" transform="translate(-99.25 -57.16)"/><path class="cls-13" d="M1245.52,175.19l-50.2-71.55H1238l25.55,37.6,25.38-37.6h42.71l-50.38,71.55v66.09h-35.78Z" transform="translate(-99.25 -57.16)"/><path class="cls-14" d="M1380.06,241.28h-35.78V103.64h57q23.18,0,35.5,12t12.33,34q0,21.9-12.33,34t-35.5,12h-21.17Zm0-74.48h11.86q19.71,0,19.72-17.16t-19.72-17.16h-11.86Z" transform="translate(-99.25 -57.16)"/><path class="cls-15" d="M1522.32,133.94V241.28h-35.78V133.94h-29.39v-30.3h94.56v30.3Z" transform="translate(-99.25 -57.16)"/></g><g id="Copyright"><path class="cls-16" d="M1618,84a10.85,10.85,0,0,0-6.15-2.07,8.35,8.35,0,0,0-3.14.58,7.78,7.78,0,0,0-2.55,1.65,7.48,7.48,0,0,0-1.72,2.52,8.32,8.32,0,0,0-.61,3.27,8.15,8.15,0,0,0,.61,3.2,8,8,0,0,0,1.68,2.53,7.52,7.52,0,0,0,2.56,1.65,8.79,8.79,0,0,0,3.17.58,9.7,9.7,0,0,0,6.15-2.27v10a20.72,20.72,0,0,1-8.22,1.87,19.6,19.6,0,0,1-6.89-1.22,17.28,17.28,0,0,1-9.74-9,16.82,16.82,0,0,1-1.49-7.15,17.89,17.89,0,0,1,1.43-7.22,17.14,17.14,0,0,1,9.73-9.31,19.77,19.77,0,0,1,7.28-1.33,17.53,17.53,0,0,1,7.9,1.81Z" transform="translate(-99.25 -57.16)"/><path class="cls-17" d="M1609.27,122.62A32.73,32.73,0,1,1,1642,89.89,32.76,32.76,0,0,1,1609.27,122.62Zm0-58.21a25.49,25.49,0,1,0,25.48,25.48A25.51,25.51,0,0,0,1609.27,64.41Z" transform="translate(-99.25 -57.16)"/></g></g><g id="Logo"><path class="cls-18" d="M264,331c-22.43,37.06-101.51,28.45-105.4,28l-.14,0h0c-92-32.89-96.17-201,128.68-268,0,0,126.23-35.93,154.37-32.57,0,0-213.35,74.53-245.61,145.74l-52.64-9.49c4.24,2,60.87,28.7,61.64,29.05,0,0-29.9,47.72-33,53.07,0,0,0,0,0,0-3.3,5.67-6.8,15.74,11.36,20.4a46.71,46.71,0,0,0,10.42,2.16s17.8-.59,63.47-18.86l.73-.27.71.64C264.17,286.14,280.19,304.24,264,331Z" transform="translate(-99.25 -57.16)"/><path class="cls-19" d="M409.18,330.88c.17-1.21,4.43-35.53-14-73.72,13.53-5.75,44.85-22.75,55.12-60.21C472.47,262.36,410.83,329.12,409.18,330.88Z" transform="translate(-99.25 -57.16)"/><path class="cls-20" d="M328.83,299.24c1.75,55.56-111,87.09-170.37,59.74l.14,0c3.89.45,83,9.06,105.4-28,16.19-26.76.17-44.86-5.46-50.15l-.71-.64c15.81-5.54,32.84-22.08,13.37-41.89C285.49,237.16,330.48,260.65,328.83,299.24Z" transform="translate(-99.25 -57.16)"/><path class="cls-21" d="M158.6,359l-.14,0Z" transform="translate(-99.25 -57.16)"/><path class="cls-22" d="M450.33,197c-10.27,37.46-41.59,54.46-55.12,60.21-6.7-14.79-18.52-30.79-29.38-41.11,32.74-16,57.79-44.75,75.5-92,.06-.15.11-.31.17-.46,5.75,60.59-31.8,87.87-43.68,94.92C410.76,212.23,450.33,197,450.33,197Z" transform="translate(-99.25 -57.16)"/><path class="cls-23" d="M441.33,124l.16-.45c-.91.71-46.54,35.55-68.81,38,0,0,66.08-28,68.82-103.23,0,0-213.35,74.53-245.61,145.75L216,207.77c9.64-14.33,16.92-15,24.61-13.22-1.51-2.78-9-16.71-9-16.71,19.68-4.83,42.84-3.17,42.89-3.17l2.4,18.91,3.63-18.34c18.26,1.11,38.48,9.92,38.48,9.92-.07.3-5,16.06-5.11,16.38l11.75-13.39c-.12-.08,20,8.14,40.1,27.9C398.57,200.09,423.62,171.3,441.33,124Z" transform="translate(-99.25 -57.16)"/><path class="cls-24" d="M365.82,216.05,366,216Z" transform="translate(-99.25 -57.16)"/><path class="cls-25" d="M247.86,233.17l-19.35,14.51s-6-7.11,1.71-13.09A18.54,18.54,0,0,1,247.86,233.17Z" transform="translate(-99.25 -57.16)"/></g></svg>